<svg width="164" height="50" viewBox="0 0 164 50" fill="none" xmlns="http://www.w3.org/2000/svg">
<g clip-path="url(#clip0_4_3)">
<path d="M66.3111 23.1662H64.3168C64.2401 22.7401 64.0973 22.3651 63.8885 22.0412C63.6797 21.7173 63.424 21.4425 63.1214 21.2166C62.8189 20.9908 62.4801 20.8203 62.1051 20.7053C61.7344 20.5902 61.3402 20.5327 60.9226 20.5327C60.1683 20.5327 59.4929 20.7223 58.8963 21.1016C58.304 21.4808 57.8352 22.0369 57.4901 22.7699C57.1491 23.5028 56.9787 24.3977 56.9787 25.4545C56.9787 26.5199 57.1491 27.419 57.4901 28.152C57.8352 28.8849 58.3061 29.4389 58.9027 29.8139C59.4993 30.1889 60.1705 30.3764 60.9162 30.3764C61.3295 30.3764 61.7216 30.321 62.0923 30.2102C62.4673 30.0952 62.8061 29.9268 63.1087 29.7053C63.4112 29.4837 63.6669 29.2131 63.8757 28.8935C64.0888 28.5696 64.2358 28.1989 64.3168 27.7812L66.3111 27.7876C66.2045 28.4311 65.9979 29.0234 65.6911 29.5646C65.3885 30.1016 64.9986 30.5661 64.5213 30.9581C64.0483 31.3459 63.5071 31.6463 62.8977 31.8594C62.2884 32.0724 61.6236 32.179 60.9034 32.179C59.7699 32.179 58.7599 31.9105 57.8736 31.3736C56.9872 30.8324 56.2884 30.0589 55.777 29.0533C55.2699 28.0476 55.0163 26.848 55.0163 25.4545C55.0163 24.0568 55.272 22.8572 55.7834 21.8558C56.2947 20.8501 56.9936 20.0788 57.88 19.5419C58.7663 19.0007 59.7741 18.7301 60.9034 18.7301C61.598 18.7301 62.2457 18.8303 62.8466 19.0305C63.4517 19.2266 63.995 19.5163 64.4766 19.8999C64.9581 20.2791 65.3565 20.7436 65.6719 21.2933C65.9872 21.8388 66.2003 22.4631 66.3111 23.1662ZM72.6568 32.1982C71.7363 32.1982 70.9331 31.9872 70.247 31.5653C69.5609 31.1435 69.0282 30.5533 68.649 29.7947C68.2697 29.0362 68.0801 28.1499 68.0801 27.1357C68.0801 26.1172 68.2697 25.2266 68.649 24.4638C69.0282 23.701 69.5609 23.1087 70.247 22.6868C70.9331 22.2649 71.7363 22.054 72.6568 22.054C73.5772 22.054 74.3805 22.2649 75.0666 22.6868C75.7527 23.1087 76.2853 23.701 76.6646 24.4638C77.0439 25.2266 77.2335 26.1172 77.2335 27.1357C77.2335 28.1499 77.0439 29.0362 76.6646 29.7947C76.2853 30.5533 75.7527 31.1435 75.0666 31.5653C74.3805 31.9872 73.5772 32.1982 72.6568 32.1982ZM72.6632 30.5938C73.2598 30.5938 73.7541 30.4361 74.1461 30.1207C74.5382 29.8054 74.8279 29.3857 75.0154 28.8615C75.2072 28.3374 75.3031 27.7599 75.3031 27.1293C75.3031 26.5028 75.2072 25.9276 75.0154 25.4034C74.8279 24.875 74.5382 24.451 74.1461 24.1314C73.7541 23.8118 73.2598 23.652 72.6632 23.652C72.0623 23.652 71.5637 23.8118 71.1674 24.1314C70.7754 24.451 70.4835 24.875 70.2917 25.4034C70.1042 25.9276 70.0105 26.5028 70.0105 27.1293C70.0105 27.7599 70.1042 28.3374 70.2917 28.8615C70.4835 29.3857 70.7754 29.8054 71.1674 30.1207C71.5637 30.4361 72.0623 30.5938 72.6632 30.5938ZM83.5025 32.1982C82.582 32.1982 81.7788 31.9872 81.0927 31.5653C80.4066 31.1435 79.8739 30.5533 79.4947 29.7947C79.1154 29.0362 78.9258 28.1499 78.9258 27.1357C78.9258 26.1172 79.1154 25.2266 79.4947 24.4638C79.8739 23.701 80.4066 23.1087 81.0927 22.6868C81.7788 22.2649 82.582 22.054 83.5025 22.054C84.4229 22.054 85.2262 22.2649 85.9123 22.6868C86.5984 23.1087 87.131 23.701 87.5103 24.4638C87.8896 25.2266 88.0792 26.1172 88.0792 27.1357C88.0792 28.1499 87.8896 29.0362 87.5103 29.7947C87.131 30.5533 86.5984 31.1435 85.9123 31.5653C85.2262 31.9872 84.4229 32.1982 83.5025 32.1982ZM83.5089 30.5938C84.1055 30.5938 84.5998 30.4361 84.9918 30.1207C85.3839 29.8054 85.6737 29.3857 85.8612 28.8615C86.0529 28.3374 86.1488 27.7599 86.1488 27.1293C86.1488 26.5028 86.0529 25.9276 85.8612 25.4034C85.6737 24.875 85.3839 24.451 84.9918 24.1314C84.5998 23.8118 84.1055 23.652 83.5089 23.652C82.908 23.652 82.4094 23.8118 82.0131 24.1314C81.6211 24.451 81.3292 24.875 81.1374 25.4034C80.9499 25.9276 80.8562 26.5028 80.8562 27.1293C80.8562 27.7599 80.9499 28.3374 81.1374 28.8615C81.3292 29.3857 81.6211 29.8054 82.0131 30.1207C82.4094 30.4361 82.908 30.5938 83.5089 30.5938ZM90.2125 35.6818V22.1818H92.079V23.7734H92.2388C92.3496 23.5689 92.5094 23.3324 92.7182 23.0639C92.927 22.7955 93.2168 22.5611 93.5875 22.3608C93.9583 22.1562 94.4483 22.054 95.0577 22.054C95.8503 22.054 96.5577 22.2543 97.1799 22.6548C97.802 23.0554 98.29 23.6328 98.6436 24.3871C99.0016 25.1413 99.1806 26.049 99.1806 27.1101C99.1806 28.1712 99.0037 29.081 98.65 29.8395C98.2963 30.5937 97.8105 31.1754 97.1926 31.5845C96.5748 31.9893 95.8695 32.1918 95.0769 32.1918C94.4803 32.1918 93.9924 32.0916 93.6131 31.8913C93.2381 31.6911 92.9441 31.4567 92.731 31.1882C92.5179 30.9197 92.3539 30.6811 92.2388 30.4723H92.1238V35.6818H90.2125ZM92.0854 27.0909C92.0854 27.7812 92.1855 28.3864 92.3858 28.9062C92.5861 29.4261 92.8759 29.8331 93.2551 30.1271C93.6344 30.4169 94.0989 30.5618 94.6486 30.5618C95.2196 30.5618 95.6969 30.4105 96.0804 30.108C96.464 29.8011 96.7537 29.3857 96.9498 28.8615C97.15 28.3374 97.2502 27.7472 97.2502 27.0909C97.2502 26.4432 97.1522 25.8615 96.9561 25.3459C96.7644 24.8303 96.4746 24.4233 96.0868 24.125C95.7033 23.8267 95.2239 23.6776 94.6486 23.6776C94.0946 23.6776 93.6259 23.8203 93.2424 24.1058C92.8631 24.3913 92.5755 24.7898 92.3794 25.3011C92.1834 25.8125 92.0854 26.4091 92.0854 27.0909ZM107.107 25.6399V27.2955H101.303V25.6399H107.107ZM114.621 27.7557H116.564L117.932 29.5391L118.577 30.3317L120.757 33.1761H118.737L117.28 31.2777L116.781 30.5874L114.621 27.7557ZM121.179 25.4545C121.179 26.8523 120.923 28.054 120.412 29.0597C119.9 30.0611 119.199 30.8324 118.309 31.3736C117.422 31.9105 116.415 32.179 115.285 32.179C114.152 32.179 113.14 31.9105 112.249 31.3736C111.363 30.8324 110.664 30.0589 110.153 29.0533C109.641 28.0476 109.385 26.848 109.385 25.4545C109.385 24.0568 109.641 22.8572 110.153 21.8558C110.664 20.8501 111.363 20.0788 112.249 19.5419C113.14 19.0007 114.152 18.7301 115.285 18.7301C116.415 18.7301 117.422 19.0007 118.309 19.5419C119.199 20.0788 119.9 20.8501 120.412 21.8558C120.923 22.8572 121.179 24.0568 121.179 25.4545ZM119.223 25.4545C119.223 24.3892 119.05 23.4922 118.705 22.7635C118.364 22.0305 117.895 21.4766 117.299 21.1016C116.706 20.7223 116.035 20.5327 115.285 20.5327C114.531 20.5327 113.858 20.7223 113.265 21.1016C112.673 21.4766 112.204 22.0305 111.859 22.7635C111.518 23.4922 111.348 24.3892 111.348 25.4545C111.348 26.5199 111.518 27.419 111.859 28.152C112.204 28.8807 112.673 29.4347 113.265 29.8139C113.858 30.1889 114.531 30.3764 115.285 30.3764C116.035 30.3764 116.706 30.1889 117.299 29.8139C117.895 29.4347 118.364 28.8807 118.705 28.152C119.05 27.419 119.223 26.5199 119.223 25.4545ZM129.707 27.9283V22.1818H131.625V32H129.746V30.2997H129.643C129.418 30.8239 129.055 31.2607 128.557 31.6101C128.063 31.9553 127.447 32.1278 126.71 32.1278C126.079 32.1278 125.521 31.9893 125.035 31.7124C124.553 31.4311 124.174 31.0156 123.897 30.4659C123.624 29.9162 123.488 29.2365 123.488 28.4268V22.1818H125.399V28.1967C125.399 28.8658 125.585 29.3984 125.955 29.7947C126.326 30.1911 126.808 30.3892 127.4 30.3892C127.758 30.3892 128.114 30.2997 128.467 30.1207C128.825 29.9418 129.121 29.6712 129.356 29.3089C129.594 28.9467 129.712 28.4865 129.707 27.9283ZM138.425 32.1982C137.457 32.1982 136.624 31.9915 135.925 31.5781C135.231 31.1605 134.694 30.5746 134.314 29.8203C133.939 29.0618 133.752 28.1733 133.752 27.1548C133.752 26.1491 133.939 25.2628 134.314 24.4957C134.694 23.7287 135.222 23.13 135.9 22.6996C136.581 22.2692 137.378 22.054 138.29 22.054C138.844 22.054 139.381 22.1456 139.901 22.3288C140.421 22.5121 140.888 22.7997 141.301 23.1918C141.714 23.5838 142.04 24.093 142.279 24.7195C142.518 25.3416 142.637 26.098 142.637 26.9886V27.6662H134.832V26.2344H140.764C140.764 25.7315 140.662 25.2862 140.457 24.8984C140.253 24.5064 139.965 24.1974 139.594 23.9716C139.228 23.7457 138.797 23.6328 138.303 23.6328C137.766 23.6328 137.297 23.7649 136.897 24.0291C136.501 24.2891 136.194 24.63 135.976 25.0518C135.763 25.4695 135.657 25.9233 135.657 26.4134V27.532C135.657 28.1882 135.772 28.7464 136.002 29.2067C136.236 29.6669 136.562 30.0185 136.98 30.2614C137.398 30.5 137.885 30.6193 138.444 30.6193C138.806 30.6193 139.136 30.5682 139.434 30.4659C139.733 30.3594 139.991 30.2017 140.208 29.9929C140.425 29.7841 140.591 29.5263 140.706 29.2195L142.515 29.5455C142.371 30.0781 142.111 30.5447 141.736 30.9453C141.365 31.3416 140.898 31.6506 140.336 31.8722C139.778 32.0895 139.14 32.1982 138.425 32.1982ZM152.115 24.5788L150.382 24.8857C150.31 24.6641 150.195 24.4531 150.037 24.2528C149.884 24.0526 149.675 23.8885 149.411 23.7607C149.147 23.6328 148.816 23.5689 148.42 23.5689C147.879 23.5689 147.427 23.6903 147.065 23.9332C146.703 24.1719 146.522 24.4808 146.522 24.8601C146.522 25.1882 146.643 25.4524 146.886 25.6527C147.129 25.853 147.521 26.017 148.062 26.1449L149.622 26.5028C150.525 26.7116 151.199 27.0334 151.642 27.468C152.085 27.9027 152.306 28.4673 152.306 29.1619C152.306 29.75 152.136 30.2741 151.795 30.7344C151.458 31.1903 150.988 31.5483 150.382 31.8082C149.782 32.0682 149.085 32.1982 148.292 32.1982C147.193 32.1982 146.296 31.9638 145.601 31.495C144.907 31.022 144.48 30.3509 144.323 29.4815L146.17 29.2003C146.285 29.6818 146.522 30.0462 146.88 30.2933C147.238 30.5362 147.704 30.6577 148.279 30.6577C148.906 30.6577 149.407 30.5277 149.782 30.2678C150.157 30.0036 150.344 29.6818 150.344 29.3026C150.344 28.9957 150.229 28.7379 149.999 28.5291C149.773 28.3203 149.426 28.1626 148.957 28.0561L147.295 27.6918C146.379 27.483 145.701 27.1506 145.262 26.6946C144.828 26.2386 144.61 25.6612 144.61 24.9624C144.61 24.3828 144.772 23.8757 145.096 23.4411C145.42 23.0064 145.868 22.6676 146.439 22.4247C147.01 22.1776 147.664 22.054 148.401 22.054C149.462 22.054 150.297 22.2841 150.907 22.7443C151.516 23.2003 151.919 23.8118 152.115 24.5788ZM158.991 22.1818V23.7159H153.628V22.1818H158.991ZM155.066 19.8295H156.977V29.1172C156.977 29.4879 157.033 29.767 157.144 29.9545C157.254 30.1378 157.397 30.2635 157.572 30.3317C157.751 30.3956 157.945 30.4276 158.154 30.4276C158.307 30.4276 158.441 30.4169 158.556 30.3956C158.671 30.3743 158.761 30.3572 158.825 30.3445L159.17 31.9233C159.059 31.9659 158.901 32.0085 158.697 32.0511C158.492 32.098 158.237 32.1236 157.93 32.1278C157.427 32.1364 156.958 32.0469 156.524 31.8594C156.089 31.6719 155.737 31.3821 155.469 30.9901C155.2 30.598 155.066 30.1058 155.066 29.5135V19.8295Z" fill="#2DB0BC"/>
<rect x="7" y="5" width="41" height="40" rx="7" fill="#2DB0BC"/>
<path d="M37.8864 23.1591H32.2045C32.1288 22.5758 31.9735 22.0492 31.7386 21.5795C31.5038 21.1098 31.1932 20.7083 30.8068 20.375C30.4205 20.0417 29.9621 19.7879 29.4318 19.6136C28.9091 19.4318 28.3295 19.3409 27.6932 19.3409C26.5644 19.3409 25.5909 19.6174 24.7727 20.1705C23.9621 20.7235 23.3371 21.5227 22.8977 22.5682C22.4659 23.6136 22.25 24.8788 22.25 26.3636C22.25 27.9091 22.4697 29.2045 22.9091 30.25C23.3561 31.2879 23.9811 32.072 24.7841 32.6023C25.5947 33.125 26.553 33.3864 27.6591 33.3864C28.2803 33.3864 28.8447 33.3068 29.3523 33.1477C29.8674 32.9886 30.3182 32.7576 30.7045 32.4545C31.0985 32.1439 31.4205 31.7689 31.6705 31.3295C31.928 30.8826 32.1061 30.3788 32.2045 29.8182L37.8864 29.8523C37.7879 30.8826 37.4886 31.8977 36.9886 32.8977C36.4962 33.8977 35.8182 34.8106 34.9545 35.6364C34.0909 36.4545 33.0379 37.1061 31.7955 37.5909C30.5606 38.0758 29.1439 38.3182 27.5455 38.3182C25.4394 38.3182 23.553 37.8561 21.8864 36.9318C20.2273 36 18.9167 34.6439 17.9545 32.8636C16.9924 31.0833 16.5114 28.9167 16.5114 26.3636C16.5114 23.803 17 21.6326 17.9773 19.8523C18.9545 18.072 20.2765 16.7197 21.9432 15.7955C23.6098 14.8712 25.4773 14.4091 27.5455 14.4091C28.9545 14.4091 30.2576 14.6061 31.4545 15C32.6515 15.3864 33.7045 15.9545 34.6136 16.7045C35.5227 17.447 36.2614 18.3598 36.8295 19.4432C37.3977 20.5265 37.75 21.7652 37.8864 23.1591Z" fill="white"/>
</g>
<defs>
<clipPath id="clip0_4_3">
<rect width="164" height="50" fill="white"/>
</clipPath>
</defs>
</svg>
