<svg width="164" height="50" viewBox="0 0 164 50" fill="none" xmlns="http://www.w3.org/2000/svg">
<path d="M53.8849 23.3622H51.2287C51.1529 22.9266 51.0133 22.5407 50.8097 22.2045C50.6061 21.8636 50.3527 21.5748 50.0497 21.3381C49.7467 21.1013 49.401 20.9238 49.0128 20.8054C48.6293 20.6823 48.215 20.6207 47.7699 20.6207C46.9792 20.6207 46.2784 20.8196 45.6676 21.2173C45.0568 21.6103 44.5786 22.188 44.233 22.9503C43.8873 23.7079 43.7145 24.6335 43.7145 25.7273C43.7145 26.84 43.8873 27.7775 44.233 28.5398C44.5833 29.2973 45.0616 29.8703 45.6676 30.2585C46.2784 30.642 46.9768 30.8338 47.7628 30.8338C48.1984 30.8338 48.6056 30.777 48.9844 30.6634C49.3679 30.545 49.7112 30.3722 50.0142 30.1449C50.322 29.9176 50.58 29.6383 50.7884 29.3068C51.0014 28.9754 51.1482 28.5966 51.2287 28.1705L53.8849 28.1847C53.7855 28.8759 53.5701 29.5246 53.2386 30.1307C52.9119 30.7367 52.4834 31.2718 51.9531 31.7358C51.4228 32.1951 50.8026 32.5549 50.0923 32.8153C49.3821 33.071 48.5938 33.1989 47.7273 33.1989C46.4489 33.1989 45.3078 32.9029 44.304 32.3111C43.3002 31.7192 42.5095 30.8646 41.9318 29.7472C41.3542 28.6297 41.0653 27.2898 41.0653 25.7273C41.0653 24.16 41.3565 22.8201 41.9389 21.7074C42.5213 20.59 43.3144 19.7353 44.3182 19.1435C45.322 18.5516 46.4583 18.2557 47.7273 18.2557C48.5369 18.2557 49.2898 18.3693 49.9858 18.5966C50.6818 18.8239 51.3021 19.1577 51.8466 19.598C52.3911 20.0336 52.8385 20.5687 53.1889 21.2031C53.544 21.8329 53.776 22.5526 53.8849 23.3622ZM60.9428 33.2131C59.8775 33.2131 58.9542 32.9787 58.1729 32.5099C57.3917 32.0412 56.7856 31.3854 56.3548 30.5426C55.9286 29.6998 55.7156 28.715 55.7156 27.5881C55.7156 26.4612 55.9286 25.474 56.3548 24.6264C56.7856 23.7789 57.3917 23.1207 58.1729 22.652C58.9542 22.1832 59.8775 21.9489 60.9428 21.9489C62.0082 21.9489 62.9315 22.1832 63.7127 22.652C64.494 23.1207 65.0977 23.7789 65.5238 24.6264C65.9547 25.474 66.1701 26.4612 66.1701 27.5881C66.1701 28.715 65.9547 29.6998 65.5238 30.5426C65.0977 31.3854 64.494 32.0412 63.7127 32.5099C62.9315 32.9787 62.0082 33.2131 60.9428 33.2131ZM60.957 31.1534C61.5347 31.1534 62.0176 30.9948 62.4059 30.6776C62.7942 30.3556 63.083 29.9247 63.2724 29.3849C63.4665 28.8452 63.5636 28.2438 63.5636 27.581C63.5636 26.9134 63.4665 26.3097 63.2724 25.7699C63.083 25.2254 62.7942 24.7921 62.4059 24.4702C62.0176 24.1482 61.5347 23.9872 60.957 23.9872C60.3652 23.9872 59.8728 24.1482 59.4798 24.4702C59.0915 24.7921 58.8003 25.2254 58.6062 25.7699C58.4168 26.3097 58.3221 26.9134 58.3221 27.581C58.3221 28.2438 58.4168 28.8452 58.6062 29.3849C58.8003 29.9247 59.0915 30.3556 59.4798 30.6776C59.8728 30.9948 60.3652 31.1534 60.957 31.1534ZM73.1108 33.2131C72.0455 33.2131 71.1222 32.9787 70.3409 32.5099C69.5597 32.0412 68.9536 31.3854 68.5227 30.5426C68.0966 29.6998 67.8835 28.715 67.8835 27.5881C67.8835 26.4612 68.0966 25.474 68.5227 24.6264C68.9536 23.7789 69.5597 23.1207 70.3409 22.652C71.1222 22.1832 72.0455 21.9489 73.1108 21.9489C74.1761 21.9489 75.0994 22.1832 75.8807 22.652C76.6619 23.1207 77.2656 23.7789 77.6918 24.6264C78.1226 25.474 78.3381 26.4612 78.3381 27.5881C78.3381 28.715 78.1226 29.6998 77.6918 30.5426C77.2656 31.3854 76.6619 32.0412 75.8807 32.5099C75.0994 32.9787 74.1761 33.2131 73.1108 33.2131ZM73.125 31.1534C73.7027 31.1534 74.1856 30.9948 74.5739 30.6776C74.9621 30.3556 75.2509 29.9247 75.4403 29.3849C75.6345 28.8452 75.7315 28.2438 75.7315 27.581C75.7315 26.9134 75.6345 26.3097 75.4403 25.7699C75.2509 25.2254 74.9621 24.7921 74.5739 24.4702C74.1856 24.1482 73.7027 23.9872 73.125 23.9872C72.5331 23.9872 72.0407 24.1482 71.6477 24.4702C71.2595 24.7921 70.9683 25.2254 70.7741 25.7699C70.5848 26.3097 70.4901 26.9134 70.4901 27.581C70.4901 28.2438 70.5848 28.8452 70.7741 29.3849C70.9683 29.9247 71.2595 30.3556 71.6477 30.6776C72.0407 30.9948 72.5331 31.1534 73.125 31.1534ZM80.5202 37.0909V22.0909H83.0487V23.8949H83.1978C83.3304 23.6297 83.5174 23.348 83.7589 23.0497C84.0004 22.7467 84.3271 22.4886 84.739 22.2756C85.1509 22.0578 85.6765 21.9489 86.3157 21.9489C87.1585 21.9489 87.9184 22.1643 88.5955 22.5952C89.2773 23.0213 89.8171 23.6534 90.2148 24.4915C90.6173 25.3248 90.8185 26.3475 90.8185 27.5597C90.8185 28.7576 90.622 29.7756 90.229 30.6136C89.8361 31.4517 89.301 32.0909 88.6239 32.5312C87.9469 32.9716 87.1798 33.1918 86.3228 33.1918C85.6978 33.1918 85.1793 33.0876 84.7674 32.8793C84.3555 32.6709 84.024 32.42 83.7731 32.1264C83.5269 31.8281 83.3351 31.5464 83.1978 31.2812H83.0913V37.0909H80.5202ZM83.0415 27.5455C83.0415 28.2509 83.141 28.8688 83.3398 29.3991C83.5434 29.9295 83.8346 30.3437 84.2134 30.642C84.5969 30.9356 85.061 31.0824 85.6055 31.0824C86.1737 31.0824 86.6495 30.9309 87.033 30.6278C87.4165 30.3201 87.7054 29.901 87.8995 29.3707C88.0984 28.8357 88.1978 28.2273 88.1978 27.5455C88.1978 26.8684 88.1007 26.267 87.9066 25.7415C87.7125 25.2159 87.4237 24.804 87.0401 24.5057C86.6566 24.2074 86.1784 24.0582 85.6055 24.0582C85.0562 24.0582 84.5898 24.2027 84.2063 24.4915C83.8228 24.7803 83.5316 25.1851 83.3327 25.706C83.1386 26.2268 83.0415 26.84 83.0415 27.5455ZM99.6325 25.8835V28H93.0842V25.8835H99.6325ZM107.869 28.1136H110.256L111.669 29.946L112.678 31.1392L115.099 34.25H112.543L110.895 32.1619L110.192 31.1676L107.869 28.1136ZM115.447 25.7273C115.447 27.2945 115.154 28.6368 114.567 29.7543C113.984 30.867 113.189 31.7192 112.18 32.3111C111.177 32.9029 110.038 33.1989 108.764 33.1989C107.491 33.1989 106.349 32.9029 105.341 32.3111C104.337 31.7145 103.542 30.8598 102.955 29.7472C102.372 28.6297 102.081 27.2898 102.081 25.7273C102.081 24.16 102.372 22.8201 102.955 21.7074C103.542 20.59 104.337 19.7353 105.341 19.1435C106.349 18.5516 107.491 18.2557 108.764 18.2557C110.038 18.2557 111.177 18.5516 112.18 19.1435C113.189 19.7353 113.984 20.59 114.567 21.7074C115.154 22.8201 115.447 24.16 115.447 25.7273ZM112.798 25.7273C112.798 24.6241 112.625 23.6937 112.28 22.9361C111.939 22.1738 111.465 21.5985 110.859 21.2102C110.253 20.8172 109.555 20.6207 108.764 20.6207C107.973 20.6207 107.275 20.8172 106.669 21.2102C106.063 21.5985 105.587 22.1738 105.241 22.9361C104.901 23.6937 104.73 24.6241 104.73 25.7273C104.73 26.8305 104.901 27.7633 105.241 28.5256C105.587 29.2831 106.063 29.8584 106.669 30.2514C107.275 30.6397 107.973 30.8338 108.764 30.8338C109.555 30.8338 110.253 30.6397 110.859 30.2514C111.465 29.8584 111.939 29.2831 112.28 28.5256C112.625 27.7633 112.798 26.8305 112.798 25.7273ZM124.798 28.4119V22.0909H127.369V33H124.876V31.0611H124.762C124.516 31.6719 124.111 32.1714 123.548 32.5597C122.989 32.9479 122.3 33.142 121.481 33.142C120.766 33.142 120.134 32.9834 119.585 32.6662C119.04 32.3442 118.614 31.8778 118.306 31.267C117.998 30.6515 117.844 29.9081 117.844 29.0369V22.0909H120.415V28.6392C120.415 29.3305 120.605 29.8797 120.984 30.2869C121.362 30.6941 121.86 30.8977 122.475 30.8977C122.854 30.8977 123.221 30.8054 123.576 30.6207C123.931 30.4361 124.222 30.1615 124.45 29.7969C124.682 29.4276 124.798 28.9659 124.798 28.4119ZM134.842 33.2131C133.748 33.2131 132.804 32.9858 132.008 32.5312C131.217 32.072 130.609 31.4233 130.183 30.5852C129.757 29.7424 129.544 28.7505 129.544 27.6094C129.544 26.4872 129.757 25.5024 130.183 24.6548C130.614 23.8026 131.215 23.1397 131.987 22.6662C132.759 22.188 133.665 21.9489 134.707 21.9489C135.379 21.9489 136.014 22.0578 136.61 22.2756C137.212 22.4886 137.742 22.8201 138.201 23.2699C138.665 23.7197 139.03 24.2926 139.295 24.9886C139.56 25.6799 139.693 26.5038 139.693 27.4602V28.2486H130.751V26.5156H137.228C137.224 26.0232 137.117 25.5852 136.909 25.2017C136.7 24.8134 136.409 24.508 136.035 24.2855C135.666 24.063 135.235 23.9517 134.743 23.9517C134.217 23.9517 133.755 24.0795 133.358 24.3352C132.96 24.5862 132.65 24.9176 132.427 25.3295C132.209 25.7367 132.098 26.1842 132.093 26.6719V28.1847C132.093 28.8191 132.209 29.3636 132.441 29.8182C132.673 30.268 132.998 30.6136 133.414 30.8551C133.831 31.0919 134.319 31.2102 134.877 31.2102C135.252 31.2102 135.59 31.1581 135.893 31.054C136.196 30.9451 136.459 30.7865 136.681 30.5781C136.904 30.3698 137.072 30.1117 137.186 29.804L139.586 30.0739C139.435 30.7083 139.146 31.2623 138.72 31.7358C138.298 32.2045 137.759 32.5691 137.1 32.8295C136.442 33.0852 135.69 33.2131 134.842 33.2131ZM150.49 24.9744L148.146 25.2301C148.08 24.9934 147.964 24.7708 147.798 24.5625C147.637 24.3542 147.42 24.1861 147.145 24.0582C146.87 23.9304 146.534 23.8665 146.136 23.8665C145.601 23.8665 145.152 23.9825 144.787 24.2145C144.427 24.4465 144.25 24.7472 144.254 25.1165C144.25 25.4337 144.366 25.6918 144.602 25.8906C144.844 26.0895 145.241 26.2528 145.795 26.3807L147.656 26.7784C148.688 27.0009 149.455 27.3537 149.957 27.8366C150.464 28.3196 150.72 28.9517 150.724 29.733C150.72 30.4195 150.518 31.0256 150.121 31.5511C149.728 32.072 149.181 32.4792 148.48 32.7727C147.779 33.0663 146.974 33.2131 146.065 33.2131C144.73 33.2131 143.655 32.9337 142.841 32.375C142.027 31.8116 141.541 31.0279 141.385 30.0241L143.892 29.7827C144.006 30.2751 144.247 30.6468 144.616 30.8977C144.986 31.1487 145.466 31.2741 146.058 31.2741C146.669 31.2741 147.159 31.1487 147.528 30.8977C147.902 30.6468 148.089 30.3366 148.089 29.9673C148.089 29.6548 147.969 29.3968 147.727 29.1932C147.491 28.9896 147.121 28.8333 146.619 28.7244L144.759 28.3338C143.712 28.116 142.938 27.7491 142.436 27.233C141.934 26.7121 141.686 26.054 141.69 25.2585C141.686 24.5862 141.868 24.0038 142.237 23.5114C142.611 23.0142 143.13 22.6307 143.793 22.3608C144.46 22.0862 145.23 21.9489 146.101 21.9489C147.379 21.9489 148.385 22.2211 149.119 22.7656C149.858 23.3101 150.315 24.0464 150.49 24.9744ZM158.292 22.0909V24.0795H152.021V22.0909H158.292ZM153.569 19.4773H156.14V29.7188C156.14 30.0644 156.192 30.3295 156.296 30.5142C156.405 30.6941 156.547 30.8172 156.722 30.8835C156.897 30.9498 157.092 30.983 157.305 30.983C157.466 30.983 157.612 30.9711 157.745 30.9474C157.882 30.9238 157.987 30.9025 158.058 30.8835L158.491 32.8935C158.353 32.9408 158.157 32.9929 157.901 33.0497C157.65 33.1065 157.343 33.1397 156.978 33.1491C156.334 33.1681 155.754 33.071 155.238 32.858C154.722 32.6402 154.312 32.304 154.009 31.8494C153.711 31.3949 153.564 30.8267 153.569 30.1449V19.4773Z" fill="#2DB0BC"/>
<rect x="6" y="10" width="31" height="30" rx="7" fill="#2DB0BC"/>
<path d="M28.9176 23.6562H25.1847C25.1165 23.1733 24.9773 22.7443 24.767 22.3693C24.5568 21.9886 24.2869 21.6648 23.9574 21.3977C23.6278 21.1307 23.2472 20.9261 22.8153 20.7841C22.3892 20.642 21.9261 20.571 21.4261 20.571C20.5227 20.571 19.7358 20.7955 19.0653 21.2443C18.3949 21.6875 17.875 22.3352 17.5057 23.1875C17.1364 24.0341 16.9517 25.0625 16.9517 26.2727C16.9517 27.517 17.1364 28.5625 17.5057 29.4091C17.8807 30.2557 18.4034 30.8949 19.0739 31.3267C19.7443 31.7585 20.5199 31.9744 21.4006 31.9744C21.8949 31.9744 22.3523 31.9091 22.7727 31.7784C23.1989 31.6477 23.5767 31.4574 23.9062 31.2074C24.2358 30.9517 24.5085 30.642 24.7244 30.2784C24.946 29.9148 25.0994 29.5 25.1847 29.0341L28.9176 29.0511C28.821 29.8523 28.5795 30.625 28.1932 31.3693C27.8125 32.108 27.2983 32.7699 26.6506 33.3551C26.0085 33.9347 25.2415 34.3949 24.3494 34.7358C23.4631 35.071 22.4602 35.2386 21.3409 35.2386C19.7841 35.2386 18.392 34.8864 17.1648 34.1818C15.9432 33.4773 14.9773 32.4574 14.267 31.1222C13.5625 29.7869 13.2102 28.1705 13.2102 26.2727C13.2102 24.3693 13.5682 22.75 14.2841 21.4148C15 20.0795 15.9716 19.0625 17.1989 18.3636C18.4261 17.6591 19.8068 17.3068 21.3409 17.3068C22.3523 17.3068 23.2898 17.4489 24.1534 17.733C25.0227 18.017 25.7926 18.4318 26.4631 18.9773C27.1335 19.517 27.679 20.179 28.0994 20.9631C28.5256 21.7472 28.7983 22.6449 28.9176 23.6562Z" fill="white"/>
</svg>
